<mxfile host="app.diagrams.net" agent="Mozilla/5.0 (Windows NT 10.0; Win64; x64) AppleWebKit/537.36 (KHTML, like Gecko) Chrome/128.0.0.0 Safari/537.36" version="24.7.12">
  <diagram name="Page-1" id="8kN37crzs31jJ6h3xRfF">
    <mxGraphModel dx="753" dy="458" grid="1" gridSize="10" guides="1" tooltips="1" connect="1" arrows="1" fold="1" page="1" pageScale="1" pageWidth="2339" pageHeight="3300" math="0" shadow="0">
      <root>
        <mxCell id="0" />
        <mxCell id="1" parent="0" />
        <mxCell id="vSuzUT9fRqiRy2GzC-CI-19" style="edgeStyle=orthogonalEdgeStyle;rounded=0;orthogonalLoop=1;jettySize=auto;html=1;" parent="1" source="vSuzUT9fRqiRy2GzC-CI-1" target="vSuzUT9fRqiRy2GzC-CI-18" edge="1">
          <mxGeometry relative="1" as="geometry" />
        </mxCell>
        <mxCell id="vSuzUT9fRqiRy2GzC-CI-1" value="Stored Telemetry" style="rounded=1;whiteSpace=wrap;html=1;" parent="1" vertex="1">
          <mxGeometry x="240" y="370" width="120" height="60" as="geometry" />
        </mxCell>
        <mxCell id="vSuzUT9fRqiRy2GzC-CI-5" style="edgeStyle=orthogonalEdgeStyle;rounded=0;orthogonalLoop=1;jettySize=auto;html=1;" parent="1" target="vSuzUT9fRqiRy2GzC-CI-4" edge="1">
          <mxGeometry relative="1" as="geometry">
            <mxPoint x="130" y="155" as="sourcePoint" />
          </mxGeometry>
        </mxCell>
        <mxCell id="vSuzUT9fRqiRy2GzC-CI-46" value="" style="edgeStyle=orthogonalEdgeStyle;rounded=0;orthogonalLoop=1;jettySize=auto;html=1;" parent="1" source="vSuzUT9fRqiRy2GzC-CI-4" target="vSuzUT9fRqiRy2GzC-CI-31" edge="1">
          <mxGeometry relative="1" as="geometry" />
        </mxCell>
        <mxCell id="vSuzUT9fRqiRy2GzC-CI-4" value="Extract and Store Features (keypoints and descriptors)" style="rounded=1;whiteSpace=wrap;html=1;" parent="1" vertex="1">
          <mxGeometry x="175" y="125" width="120" height="60" as="geometry" />
        </mxCell>
        <mxCell id="vSuzUT9fRqiRy2GzC-CI-9" style="edgeStyle=orthogonalEdgeStyle;rounded=0;orthogonalLoop=1;jettySize=auto;html=1;" parent="1" source="vSuzUT9fRqiRy2GzC-CI-7" edge="1">
          <mxGeometry relative="1" as="geometry">
            <mxPoint x="710" y="325" as="targetPoint" />
          </mxGeometry>
        </mxCell>
        <mxCell id="vSuzUT9fRqiRy2GzC-CI-7" value="Find most correlated prior image (back-to-front)" style="rounded=1;whiteSpace=wrap;html=1;" parent="1" vertex="1">
          <mxGeometry x="650" y="125" width="120" height="60" as="geometry" />
        </mxCell>
        <mxCell id="vSuzUT9fRqiRy2GzC-CI-13" style="edgeStyle=orthogonalEdgeStyle;rounded=0;orthogonalLoop=1;jettySize=auto;html=1;" parent="1" source="vSuzUT9fRqiRy2GzC-CI-10" target="vSuzUT9fRqiRy2GzC-CI-11" edge="1">
          <mxGeometry relative="1" as="geometry" />
        </mxCell>
        <mxCell id="vSuzUT9fRqiRy2GzC-CI-10" value="Match Features" style="rounded=1;whiteSpace=wrap;html=1;" parent="1" vertex="1">
          <mxGeometry x="650" y="325" width="120" height="60" as="geometry" />
        </mxCell>
        <mxCell id="vSuzUT9fRqiRy2GzC-CI-15" style="edgeStyle=orthogonalEdgeStyle;rounded=0;orthogonalLoop=1;jettySize=auto;html=1;" parent="1" source="vSuzUT9fRqiRy2GzC-CI-11" target="vSuzUT9fRqiRy2GzC-CI-12" edge="1">
          <mxGeometry relative="1" as="geometry" />
        </mxCell>
        <mxCell id="vSuzUT9fRqiRy2GzC-CI-11" value="Rotation estimation and transformation" style="rounded=1;whiteSpace=wrap;html=1;" parent="1" vertex="1">
          <mxGeometry x="650" y="415" width="120" height="60" as="geometry" />
        </mxCell>
        <mxCell id="vSuzUT9fRqiRy2GzC-CI-29" style="edgeStyle=orthogonalEdgeStyle;rounded=0;orthogonalLoop=1;jettySize=auto;html=1;entryX=1;entryY=0.5;entryDx=0;entryDy=0;" parent="1" source="vSuzUT9fRqiRy2GzC-CI-12" target="vSuzUT9fRqiRy2GzC-CI-26" edge="1">
          <mxGeometry relative="1" as="geometry" />
        </mxCell>
        <mxCell id="vSuzUT9fRqiRy2GzC-CI-12" value="Pixel&amp;nbsp;Translation Estimation&amp;nbsp;" style="rounded=1;whiteSpace=wrap;html=1;" parent="1" vertex="1">
          <mxGeometry x="650" y="505" width="120" height="60" as="geometry" />
        </mxCell>
        <mxCell id="vSuzUT9fRqiRy2GzC-CI-18" value="Estimate new GPS and heading&amp;nbsp;" style="rounded=1;whiteSpace=wrap;html=1;" parent="1" vertex="1">
          <mxGeometry x="240" y="505" width="120" height="60" as="geometry" />
        </mxCell>
        <mxCell id="vSuzUT9fRqiRy2GzC-CI-21" value="Extract and&lt;br&gt;&lt;span style=&quot;color: rgb(0, 0, 0); font-family: Helvetica; font-size: 12px; font-style: normal; font-variant-ligatures: normal; font-variant-caps: normal; font-weight: 400; letter-spacing: normal; orphans: 2; text-align: center; text-indent: 0px; text-transform: none; widows: 2; word-spacing: 0px; -webkit-text-stroke-width: 0px; white-space: normal; background-color: rgb(251, 251, 251); text-decoration-thickness: initial; text-decoration-style: initial; text-decoration-color: initial; display: inline !important; float: none;&quot;&gt;Store Telemetry Data&lt;/span&gt;&lt;div&gt;(GPS and heading)&lt;/div&gt;" style="shape=parallelogram;perimeter=parallelogramPerimeter;whiteSpace=wrap;html=1;fixedSize=1;" parent="1" vertex="1">
          <mxGeometry x="410" y="255" width="160" height="60" as="geometry" />
        </mxCell>
        <mxCell id="vSuzUT9fRqiRy2GzC-CI-22" value="Image" style="shape=parallelogram;perimeter=parallelogramPerimeter;whiteSpace=wrap;html=1;fixedSize=1;" parent="1" vertex="1">
          <mxGeometry x="20" y="125" width="120" height="60" as="geometry" />
        </mxCell>
        <mxCell id="vSuzUT9fRqiRy2GzC-CI-32" value="YES" style="edgeStyle=orthogonalEdgeStyle;rounded=0;orthogonalLoop=1;jettySize=auto;html=1;entryX=1;entryY=0.5;entryDx=0;entryDy=0;" parent="1" source="vSuzUT9fRqiRy2GzC-CI-26" target="vSuzUT9fRqiRy2GzC-CI-18" edge="1">
          <mxGeometry relative="1" as="geometry" />
        </mxCell>
        <mxCell id="vSuzUT9fRqiRy2GzC-CI-36" value="NO" style="edgeStyle=orthogonalEdgeStyle;rounded=0;orthogonalLoop=1;jettySize=auto;html=1;" parent="1" source="vSuzUT9fRqiRy2GzC-CI-26" target="vSuzUT9fRqiRy2GzC-CI-27" edge="1">
          <mxGeometry relative="1" as="geometry" />
        </mxCell>
        <mxCell id="vSuzUT9fRqiRy2GzC-CI-26" value="IF GPS_LOST" style="rhombus;whiteSpace=wrap;html=1;" parent="1" vertex="1">
          <mxGeometry x="430" y="495" width="120" height="80" as="geometry" />
        </mxCell>
        <mxCell id="vSuzUT9fRqiRy2GzC-CI-44" value="" style="edgeStyle=orthogonalEdgeStyle;rounded=0;orthogonalLoop=1;jettySize=auto;html=1;" parent="1" source="vSuzUT9fRqiRy2GzC-CI-27" target="vSuzUT9fRqiRy2GzC-CI-21" edge="1">
          <mxGeometry relative="1" as="geometry" />
        </mxCell>
        <mxCell id="vSuzUT9fRqiRy2GzC-CI-27" value="Infer lowest MSE GPS_TO_PIXEL factor" style="rounded=1;whiteSpace=wrap;html=1;arcSize=21;" parent="1" vertex="1">
          <mxGeometry x="385" y="350" width="210" height="85" as="geometry" />
        </mxCell>
        <mxCell id="vSuzUT9fRqiRy2GzC-CI-45" value="" style="edgeStyle=orthogonalEdgeStyle;rounded=0;orthogonalLoop=1;jettySize=auto;html=1;" parent="1" source="vSuzUT9fRqiRy2GzC-CI-31" target="vSuzUT9fRqiRy2GzC-CI-21" edge="1">
          <mxGeometry relative="1" as="geometry" />
        </mxCell>
        <mxCell id="vSuzUT9fRqiRy2GzC-CI-47" value="" style="edgeStyle=orthogonalEdgeStyle;rounded=0;orthogonalLoop=1;jettySize=auto;html=1;" parent="1" source="vSuzUT9fRqiRy2GzC-CI-31" target="vSuzUT9fRqiRy2GzC-CI-7" edge="1">
          <mxGeometry relative="1" as="geometry" />
        </mxCell>
        <mxCell id="vSuzUT9fRqiRy2GzC-CI-31" value="IF GPS_LOST OR INFER_GPS_TO_PIXEL" style="rhombus;whiteSpace=wrap;html=1;" parent="1" vertex="1">
          <mxGeometry x="400" y="100" width="180" height="110" as="geometry" />
        </mxCell>
        <mxCell id="vSuzUT9fRqiRy2GzC-CI-43" style="edgeStyle=orthogonalEdgeStyle;rounded=0;orthogonalLoop=1;jettySize=auto;html=1;" parent="1" source="vSuzUT9fRqiRy2GzC-CI-40" target="vSuzUT9fRqiRy2GzC-CI-21" edge="1">
          <mxGeometry relative="1" as="geometry" />
        </mxCell>
        <mxCell id="vSuzUT9fRqiRy2GzC-CI-40" value="&#xa;&lt;span style=&quot;color: rgb(0, 0, 0); font-family: Helvetica; font-size: 12px; font-style: normal; font-variant-ligatures: normal; font-variant-caps: normal; font-weight: 400; letter-spacing: normal; orphans: 2; text-align: center; text-indent: 0px; text-transform: none; widows: 2; word-spacing: 0px; -webkit-text-stroke-width: 0px; white-space: normal; background-color: rgb(251, 251, 251); text-decoration-thickness: initial; text-decoration-style: initial; text-decoration-color: initial; display: inline !important; float: none;&quot;&gt;Telemetry Data&lt;/span&gt;&#xa;&#xa;" style="shape=parallelogram;perimeter=parallelogramPerimeter;whiteSpace=wrap;html=1;fixedSize=1;" parent="1" vertex="1">
          <mxGeometry x="20" y="255" width="120" height="60" as="geometry" />
        </mxCell>
      </root>
    </mxGraphModel>
  </diagram>
</mxfile>
